name Walk3.mot
datacolumns 19
datarows 20
range 3.27300000 3.29200000
endheader

                time	   L_ground_force_vx	   L_ground_force_vy	   L_ground_force_vz	   L_ground_force_px	   L_ground_force_py	   L_ground_force_pz	   R_ground_force_vx	   R_ground_force_vy	   R_ground_force_vz	   R_ground_force_px	   R_ground_force_py	   R_ground_force_pz	   L_ground_torque_x	   L_ground_torque_y	   L_ground_torque_z	   R_ground_torque_x	   R_ground_torque_y	   R_ground_torque_z	
          3.27300000	          0.04891736	          0.12669417	         -0.00457982	         -0.00042669	          0.00000000	         -0.00006051	        -35.56344188	        697.45695682	        -33.56039831	          0.12852908	          0.00000000	          0.08778290	          0.00000000	          0.00030543	          0.00000000	          0.00000000	          4.42989759	          0.00000000	
          3.27400000	          0.04625633	          0.11831167	         -0.00449769	         -0.00041427	          0.00000000	         -0.00005875	        -35.10929356	        696.27985692	        -33.47478775	          0.12869122	          0.00000000	          0.08781756	          0.00000000	          0.00029537	          0.00000000	          0.00000000	          4.40875208	          0.00000000	
          3.27500000	          0.04364675	          0.11019481	         -0.00440555	         -0.00040135	          0.00000000	         -0.00005692	        -34.65449189	        695.09904633	        -33.39484202	          0.12885399	          0.00000000	          0.08785347	          0.00000000	          0.00028505	          0.00000000	          0.00000000	          4.38858352	          0.00000000	
          3.27600000	          0.04109412	          0.10235167	         -0.00430460	         -0.00038800	          0.00000000	         -0.00005503	        -34.19901215	        693.91462596	        -33.32055548	          0.12901733	          0.00000000	          0.08789063	          0.00000000	          0.00027453	          0.00000000	          0.00000000	          4.36937846	          0.00000000	
          3.27700000	          0.03860324	          0.09478864	         -0.00419597	         -0.00037433	          0.00000000	         -0.00005310	        -33.74282849	        692.72671414	        -33.25190373	          0.12918119	          0.00000000	          0.08792904	          0.00000000	          0.00026387	          0.00000000	          0.00000000	          4.35112115	          0.00000000	
          3.27800000	          0.03617827	          0.08751045	         -0.00408072	         -0.00036040	          0.00000000	         -0.00005112	        -33.28591372	        691.53544775	        -33.18884408	          0.12934552	          0.00000000	          0.08796869	          0.00000000	          0.00025311	          0.00000000	          0.00000000	          4.33379345	          0.00000000	
          3.27900000	          0.03382277	          0.08052041	         -0.00395984	         -0.00034630	          0.00000000	         -0.00004913	        -32.82823954	        690.34098225	        -33.13131603	          0.12951026	          0.00000000	          0.08800957	          0.00000000	          0.00024232	          0.00000000	          0.00000000	          4.31737473	          0.00000000	
          3.28000000	          0.03153974	          0.07382042	         -0.00383428	         -0.00033209	          0.00000000	         -0.00004711	        -32.36977686	        689.14349087	        -33.07924188	          0.12967536	          0.00000000	          0.08805168	          0.00000000	          0.00023152	          0.00000000	          0.00000000	          4.30184185	          0.00000000	
          3.28100000	          0.02933164	          0.06741115	         -0.00370491	         -0.00031783	          0.00000000	         -0.00004509	        -31.91049633	        687.94316367	        -33.03252733	          0.12984076	          0.00000000	          0.08809502	          0.00000000	          0.00022077	          0.00000000	          0.00000000	          4.28716920	          0.00000000	
          3.28200000	          0.02720045	          0.06129208	         -0.00357254	         -0.00030358	          0.00000000	         -0.00004307	        -31.45036902	        686.74020713	        -32.99106218	          0.13000641	          0.00000000	          0.08813958	          0.00000000	          0.00021010	          0.00000000	          0.00000000	          4.27332880	          0.00000000	
          3.28300000	          0.02514767	          0.05546168	         -0.00343792	         -0.00028939	          0.00000000	         -0.00004106	        -30.98936694	        685.53484454	        -32.95472105	          0.13017225	          0.00000000	          0.08818534	          0.00000000	          0.00019954	          0.00000000	          0.00000000	          4.26029057	          0.00000000	
          3.28400000	          0.02317440	          0.04991742	         -0.00330176	         -0.00027532	          0.00000000	         -0.00003907	        -30.52746355	        684.32731637	        -32.92336419	          0.13033823	          0.00000000	          0.08823231	          0.00000000	          0.00018913	          0.00000000	          0.00000000	          4.24802264	          0.00000000	
          3.28500000	          0.02128134	          0.04465593	         -0.00316469	         -0.00026141	          0.00000000	         -0.00003709	        -30.06463420	        683.11788025	        -32.89683843	          0.13050430	          0.00000000	          0.08828047	          0.00000000	          0.00017889	          0.00000000	          0.00000000	          4.23649167	          0.00000000	
          3.28600000	          0.01946881	          0.03967305	         -0.00302733	         -0.00024768	          0.00000000	         -0.00003515	        -29.60085634	        681.90680992	        -32.87497829	          0.13067043	          0.00000000	          0.08832979	          0.00000000	          0.00016884	          0.00000000	          0.00000000	          4.22566302	          0.00000000	
          3.28700000	          0.01773683	          0.03496393	         -0.00289020	         -0.00023420	          0.00000000	         -0.00003324	        -29.13610989	        680.69439359	        -32.85760704	          0.13083658	          0.00000000	          0.08838026	          0.00000000	          0.00015901	          0.00000000	          0.00000000	          4.21550089	          0.00000000	
          3.28800000	          0.01608508	          0.03052307	         -0.00275381	         -0.00022097	          0.00000000	         -0.00003136	        -28.67037738	        679.48093173	        -32.84453803	          0.13100272	          0.00000000	          0.08843187	          0.00000000	          0.00014941	          0.00000000	          0.00000000	          4.20596841	          0.00000000	
          3.28900000	          0.01451299	          0.02634445	         -0.00261861	         -0.00020803	          0.00000000	         -0.00002953	        -28.20364420	        678.26673472	        -32.83557584	          0.13116884	          0.00000000	          0.08848457	          0.00000000	          0.00014006	          0.00000000	          0.00000000	          4.19702784	          0.00000000	
          3.29000000	          0.01301973	          0.02242156	         -0.00248501	         -0.00019541	          0.00000000	         -0.00002774	        -27.73589864	        677.05212061	        -32.83051763	          0.13133489	          0.00000000	          0.08853836	          0.00000000	          0.00013098	          0.00000000	          0.00000000	          4.18864086	          0.00000000	
          3.29100000	          0.01160423	          0.01874749	         -0.00235338	         -0.00018312	          0.00000000	         -0.00002599	        -27.26713175	        675.83741338	        -32.82915431	          0.13150086	          0.00000000	          0.08859319	          0.00000000	          0.00012218	          0.00000000	          0.00000000	          4.18076894	          0.00000000	
          3.29200000	          0.01026523	          0.01531497	         -0.00222405	         -0.00017118	          0.00000000	         -0.00002430	        -26.79733699	        674.62294182	        -32.83127185	          0.13166671	          0.00000000	          0.08864905	          0.00000000	          0.00011366	          0.00000000	          0.00000000	          4.17337368	          0.00000000	
